<mxfile host="app.diagrams.net" agent="Mozilla/5.0 (Windows NT 10.0; Win64; x64) AppleWebKit/537.36 (KHTML, like Gecko) Chrome/132.0.0.0 Safari/537.36" version="26.0.10">
  <diagram name="Page-1" id="HBD1qa6QwuZkXiN3pfPk">
    <mxGraphModel>
      <root>
        <mxCell id="0" />
        <mxCell id="1" parent="0" />
        <mxCell id="2" value="Connections" style="whiteSpace=wrap;strokeWidth=2;" vertex="1" parent="1">
          <mxGeometry x="339" y="8" width="197" height="124" as="geometry" />
        </mxCell>
        <mxCell id="3" value="Resources" style="whiteSpace=wrap;strokeWidth=2;" vertex="1" parent="1">
          <mxGeometry x="339" y="152" width="197" height="228" as="geometry" />
        </mxCell>
        <mxCell id="4" value="System" style="whiteSpace=wrap;strokeWidth=2;" vertex="1" parent="1">
          <mxGeometry x="8" y="30" width="129" height="314" as="geometry" />
        </mxCell>
        <mxCell id="5" value="Observer" style="ellipse;aspect=fixed;strokeWidth=2;whiteSpace=wrap;" vertex="1" parent="1">
          <mxGeometry x="33" y="175" width="79" height="79" as="geometry" />
        </mxCell>
        <mxCell id="6" value="CPU" style="whiteSpace=wrap;strokeWidth=2;" vertex="1" parent="1">
          <mxGeometry x="393" y="187" width="89" height="54" as="geometry" />
        </mxCell>
        <mxCell id="7" value="RAM" style="whiteSpace=wrap;strokeWidth=2;" vertex="1" parent="1">
          <mxGeometry x="392" y="291" width="90" height="54" as="geometry" />
        </mxCell>
        <mxCell id="8" value="Connections" style="whiteSpace=wrap;strokeWidth=2;" vertex="1" parent="1">
          <mxGeometry x="364" y="43" width="147" height="54" as="geometry" />
        </mxCell>
        <mxCell id="9" value="Monitor CPU" style="curved=1;startArrow=none;endArrow=block;exitX=1;exitY=0.49;entryX=0;entryY=0.5;" edge="1" parent="1" source="5" target="6">
          <mxGeometry relative="1" as="geometry">
            <Array as="points" />
          </mxGeometry>
        </mxCell>
        <mxCell id="10" value="Monitor RAM" style="curved=1;startArrow=none;endArrow=block;exitX=0.81;exitY=0.99;entryX=0;entryY=0.5;" edge="1" parent="1" source="5" target="7">
          <mxGeometry relative="1" as="geometry">
            <Array as="points">
              <mxPoint x="137" y="318" />
            </Array>
          </mxGeometry>
        </mxCell>
        <mxCell id="11" value="Monitor Connections" style="curved=1;startArrow=none;endArrow=block;exitX=0.72;exitY=-0.01;entryX=0;entryY=0.5;" edge="1" parent="1" source="5" target="8">
          <mxGeometry relative="1" as="geometry">
            <Array as="points">
              <mxPoint x="137" y="70" />
            </Array>
          </mxGeometry>
        </mxCell>
      </root>
    </mxGraphModel>
  </diagram>
</mxfile>
